PathFileType	4	(X/Y/Z)	SUBJ11_3_walk_RCNL2025.trc
DataRate	CameraRate	NumFrames	NumMarkers	Units	OrigDataRate	OrigDataStartFrame	OrigNumFrames
100	100	11	25	mm	100	55	432
Frame#	Time	R_Shoulder			L_Shoulder			C7			J_Notch			R_Elbow			L_Elbow			R_Wrist			L_Wrist			R_Asis			L_Asis			Sacral			Thoracic			Sternum			R_Thigh_Lateral			R_Knee_Lateral			R_Shank_Lateral			R_Ankle_Lateral			R_Heel			R_Toe			L_Thigh_Lateral			L_Knee_Lateral			L_Shank_Lateral			L_Ankle_Lateral			L_Heel			L_Toe		
		X1	Y1	Z1	X2	Y2	Z2	X3	Y3	Z3	X4	Y4	Z4	X5	Y5	Z5	X6	Y6	Z6	X7	Y7	Z7	X8	Y8	Z8	X9	Y9	Z9	X10	Y10	Z10	X11	Y11	Z11	X12	Y12	Z12	X13	Y13	Z13	X14	Y14	Z14	X15	Y15	Z15	X16	Y16	Z16	X17	Y17	Z17	X18	Y18	Z18	X19	Y19	Z19	X20	Y20	Z20	X21	Y21	Z21	X22	Y22	Z22	X23	Y23	Z23	X24	Y24	Z24	X25	Y25	Z25
55	0.54000000	-1232.318848	1440.050171	110.844322	-1213.783569	1460.119263	-286.213745	-1262.388794	1501.442383	-82.097321	-1123.348633	1389.907471	-78.079018	-1285.658691	1098.016968	184.133957	-1255.640747	1121.546387	-384.438019	-1184.433899	856.370911	169.767853	-1205.097900	862.448395	-357.916306	-1166.679810	975.470764	50.852566	-1158.901611	977.240295	-242.559311	-1337.932983	997.360718	-103.949219	-1350.695435	1319.980591	-99.632469	-1066.222046	1192.746704	-88.376251	-1220.829224	627.565796	90.354965	-1188.473877	476.600037	22.655676	-1201.896851	267.808807	50.793419	-1211.708008	69.814850	-24.609081	-1266.005493	54.758816	-78.129333	-1073.313965	53.443726	-48.404800	-1191.985229	630.467407	-334.958130	-1171.744995	489.642700	-260.863098	-1309.738892	338.907410	-286.003937	-1436.808960	197.702332	-208.717865	-1473.653809	226.051620	-148.820999	-1357.157959	85.106140	-190.055130
56	0.55000000	-1220.957031	1442.284790	110.883705	-1204.547852	1460.932983	-286.212952	-1251.839844	1502.760864	-82.081032	-1112.670776	1391.366211	-78.379532	-1270.559326	1100.167114	186.011230	-1251.363403	1122.760254	-383.410950	-1164.838318	860.580322	171.490059	-1204.470764	862.936829	-358.296722	-1156.112915	976.242798	52.063457	-1147.997559	978.817261	-241.663422	-1327.187744	998.698608	-103.283600	-1340.084106	1321.100586	-98.522758	-1055.687988	1194.164185	-88.190208	-1215.974365	628.141296	89.430450	-1186.927856	476.941803	21.386114	-1201.496948	268.226776	50.191990	-1211.739868	69.959587	-24.754747	-1266.041260	54.897541	-78.237755	-1073.336060	53.434158	-48.413723	-1174.154541	633.340698	-334.500061	-1151.331299	491.997040	-260.358978	-1283.899414	336.408630	-286.026581	-1407.476196	191.941330	-208.918701	-1446.102661	219.243484	-149.598648	-1323.666626	82.908035	-188.861618
57	0.56000000	-1209.578491	1444.236572	110.877632	-1195.299561	1461.473389	-286.214203	-1241.291626	1503.794067	-82.080254	-1102.020996	1392.523560	-78.712448	-1255.552368	1102.091675	187.884369	-1247.170044	1123.807739	-382.402039	-1145.450134	864.638885	173.251083	-1203.720825	863.344635	-358.669846	-1145.606079	976.792358	53.202068	-1137.154419	980.097839	-240.793793	-1316.496582	999.762390	-102.694496	-1329.488647	1321.960571	-97.436378	-1045.169922	1195.291382	-88.012390	-1210.833374	628.604248	88.585175	-1185.234741	477.249817	20.137568	-1200.934204	268.618164	49.583195	-1211.733032	70.090042	-24.924896	-1266.070557	55.048576	-78.367142	-1073.321167	53.414833	-48.441750	-1156.577759	636.070190	-333.930695	-1131.283325	494.038940	-259.612610	-1257.669922	333.124634	-285.880249	-1377.313477	185.194153	-209.065887	-1417.735474	211.199738	-150.286530	-1289.102783	80.164833	-187.774414
58	0.57000000	-1198.169800	1445.852539	110.836464	-1186.020752	1461.717285	-286.227661	-1230.735107	1504.520264	-82.080025	-1091.396606	1393.358032	-79.061462	-1240.646362	1103.737549	189.763992	-1243.023315	1124.657837	-381.404816	-1126.262451	868.495941	175.039383	-1202.824585	863.633820	-359.025299	-1135.397827	977.047302	54.189671	-1126.371948	981.046997	-239.949524	-1305.856689	1000.532532	-102.184151	-1318.905029	1322.544312	-96.369476	-1034.665894	1196.091919	-87.831596	-1205.370972	628.936829	87.856941	-1183.347412	477.505615	18.954313	-1200.217651	268.967194	48.990597	-1211.682129	70.202126	-25.124525	-1266.085205	55.209351	-78.526413	-1073.268555	53.384842	-48.488701	-1139.335449	638.572632	-333.262817	-1111.655884	495.757965	-258.630951	-1231.216064	329.267517	-285.553101	-1346.366699	177.640259	-209.156570	-1388.535400	202.072083	-150.844986	-1253.607056	77.041901	-186.905243
59	0.58000000	-1186.723511	1447.095459	110.766090	-1176.697754	1461.650391	-286.260864	-1220.164429	1504.926392	-82.072456	-1080.787720	1393.854736	-79.419502	-1225.839233	1105.070068	191.658264	-1238.879517	1125.287842	-380.411804	-1107.262085	872.109863	176.837547	-1201.760803	863.771759	-359.350616	-1125.568237	976.983276	54.999775	-1115.637573	981.637268	-239.137283	-1295.263672	1000.995667	-101.748909	-1308.329468	1322.842529	-95.326530	-1024.174561	1196.536011	-87.641052	-1199.596191	629.125549	87.268143	-1181.232300	477.695587	17.878494	-1199.356812	269.262268	48.438694	-1211.586914	70.293510	-25.353331	-1266.072021	55.371819	-78.723991	-1073.181152	53.344376	-48.552483	-1122.473877	640.770325	-332.511108	-1092.518921	497.153809	-257.441833	-1204.722534	325.050934	-285.054169	-1314.678467	169.457916	-209.195404	-1358.497070	192.034180	-151.258286	-1217.313843	73.704834	-186.310532
60	0.59000000	-1175.235840	1447.944702	110.668037	-1167.322144	1461.268921	-286.317017	-1209.577148	1505.009644	-82.056114	-1070.176758	1394.002686	-79.790886	-1211.120728	1106.074707	193.571548	-1234.689941	1125.686279	-379.417938	-1088.439270	875.448303	178.626396	-1200.506653	863.733124	-359.631226	-1116.037109	976.623230	55.658134	-1104.939575	981.846802	-238.367859	-1284.710449	1001.143799	-101.380508	-1297.757935	1322.854492	-94.319145	-1013.691528	1196.607300	-87.444084	-1193.542725	629.166260	86.832596	-1178.859497	477.810303	16.946928	-1198.348511	269.495300	47.951733	-1211.450928	70.363754	-25.604401	-1266.019409	55.525795	-78.962379	-1073.064209	53.294724	-48.629456	-1106.012207	642.596252	-331.682404	-1073.942139	498.227814	-256.083221	-1178.370728	320.661987	-284.406219	-1282.289917	160.820602	-209.188538	-1327.624023	181.272141	-151.528275	-1180.350464	70.315002	-186.000366
61	0.60000000	-1163.706909	1448.396729	110.540810	-1157.889526	1460.580200	-286.397186	-1198.972168	1504.776978	-82.035423	-1059.541626	1393.795044	-80.187042	-1196.475952	1106.755737	195.503311	-1230.401733	1125.850220	-378.422546	-1069.793457	878.487244	180.387222	-1199.034241	863.501160	-359.850266	-1106.630371	976.017700	56.215282	-1094.271729	981.658752	-237.654114	-1274.187378	1000.976135	-101.067406	-1287.186401	1322.587524	-93.364044	-1003.210083	1196.306274	-87.252625	-1187.247681	629.064148	86.560577	-1176.196167	477.842682	16.188101	-1197.174072	269.660034	47.550720	-1211.278931	70.415314	-25.864674	-1265.924072	55.665569	-79.232857	-1072.924194	53.237236	-48.715637	-1089.963623	643.994507	-330.768250	-1055.981934	498.974304	-254.589691	-1152.311401	316.237732	-283.640076	-1249.240723	151.896973	-209.139420	-1295.927002	169.977829	-151.666565	-1142.836914	67.025284	-185.947098
62	0.61000000	-1152.139526	1448.463013	110.382309	-1148.398560	1459.600220	-286.501831	-1188.347412	1504.242676	-82.019684	-1048.858765	1393.234497	-80.621506	-1181.888550	1107.131226	197.447678	-1225.959229	1125.783447	-377.428253	-1051.333496	881.211304	182.101883	-1197.317566	863.068176	-359.991333	-1097.127930	975.230469	56.724976	-1083.630615	981.063110	-237.011047	-1263.682129	1000.499878	-100.796539	-1276.609497	1322.056641	-92.480469	-992.724670	1195.649048	-87.082619	-1180.735352	628.829773	86.460625	-1173.208252	477.786163	15.620761	-1195.806885	269.750153	47.250431	-1211.076660	70.454094	-26.117508	-1265.793701	55.795326	-79.513596	-1072.767700	53.171806	-48.807766	-1074.358276	644.917419	-329.745392	-1038.676514	499.377075	-252.986786	-1126.636108	311.853088	-282.790253	-1215.570679	142.851059	-209.048386	-1263.422729	158.344849	-151.687958	-1104.886230	63.978939	-186.092438
63	0.62000000	-1140.538208	1448.168701	110.190842	-1138.850952	1458.352417	-286.631592	-1177.698853	1503.427612	-82.021736	-1038.104980	1392.338867	-81.108017	-1167.343140	1107.227783	199.392868	-1221.308472	1125.494629	-376.437866	-1033.075897	883.615967	183.754128	-1195.343140	862.434967	-360.042313	-1087.310303	974.328064	57.231880	-1073.013916	980.058716	-236.454361	-1253.181763	999.730042	-100.555176	-1266.021606	1321.281616	-91.687119	-982.230835	1194.664551	-86.950623	-1174.012817	628.473328	86.538376	-1169.864868	477.633972	15.253503	-1194.220459	269.758179	47.057388	-1210.847656	70.486618	-26.348536	-1265.642700	55.928799	-79.773964	-1072.599854	53.095772	-48.904766	-1059.249878	645.322144	-328.584747	-1022.049438	499.411041	-251.294464	-1101.363647	307.527161	-281.888367	-1181.323242	133.843857	-208.914291	-1230.137451	146.566818	-151.607971	-1066.601685	61.312599	-186.356430
64	0.63000000	-1128.906982	1447.548218	109.964249	-1129.247437	1456.864502	-286.788391	-1167.019775	1502.355713	-82.056183	-1027.260254	1391.140503	-81.660637	-1152.827148	1107.076416	201.321228	-1216.401245	1124.994385	-375.452057	-1015.043091	885.707428	185.330917	-1193.108948	861.608765	-359.994751	-1077.026978	973.365723	57.760880	-1062.417969	978.655029	-235.996643	-1242.673462	998.687134	-100.332359	-1255.416382	1320.285522	-90.999702	-971.722595	1193.389893	-86.871994	-1167.071289	628.002197	86.792877	-1166.141968	477.379944	15.084780	-1192.393799	269.676453	46.969082	-1210.591187	70.514755	-26.552008	-1265.484375	56.083241	-79.985275	-1072.423706	53.004745	-49.008942	-1044.705322	645.175476	-327.267059	-1006.111267	499.047943	-249.532913	-1076.450073	303.245056	-280.953644	-1146.553223	125.037773	-208.737854	-1196.113159	134.838120	-151.445282	-1028.077148	59.163021	-186.649506
65	0.64000000	-1117.248779	1446.641846	109.698845	-1119.586548	1455.165649	-286.976562	-1156.300781	1501.052734	-82.137520	-1016.314636	1389.677490	-82.291229	-1138.332031	1106.710693	203.210419	-1211.199219	1124.294067	-374.468597	-997.260254	887.497620	186.821396	-1190.615295	860.602234	-359.841171	-1066.248047	972.373779	58.311432	-1051.835449	976.872681	-235.643295	-1232.144165	997.394531	-100.119789	-1244.787842	1319.092529	-90.429634	-961.190918	1191.867188	-86.861298	-1159.893799	627.421021	87.211998	-1162.023682	477.018555	15.101814	-1190.313110	269.499603	46.974648	-1210.302368	70.534157	-26.731617	-1265.328003	56.273319	-80.132942	-1072.239380	52.895191	-49.125488	-1030.785400	644.465637	-325.796356	-990.858154	498.264465	-247.724228	-1051.815552	298.986938	-279.990143	-1111.333862	116.601089	-208.525864	-1161.415283	123.355324	-151.226791	-989.402344	57.674583	-186.886383
